<?xml version="1.0" ?><svg viewBox="0 0 64 64" xmlns="http://www.w3.org/2000/svg"><defs><style>.cls-1,.cls-5{fill:none;}.cls-1{stroke:#000;stroke-linecap:round;stroke-linejoin:round;stroke-width:2px;}.cls-2{fill:#95deeb;}.cls-3{fill:#65bfc4;}.cls-4{fill:#3b9391;}</style></defs><title/><g id="Outline"><path class="cls-1" d="M49,25.27S59.2,22.1,57.79,30A12.12,12.12,0,0,1,49,39.5"/><path class="cls-1" d="M15,25.27S4.8,22.1,6.21,30A12.12,12.12,0,0,0,15,39.5"/><path class="cls-2" d="M49,40.66s-4.16,3.75-17,3.75-17-3.75-17-3.75v-17a36.15,36.15,0,0,1,17-4.08,36.15,36.15,0,0,1,17,4.08Z"/><path class="cls-3" d="M49,30.5s-4.16-2-17-2-17,2-17,2V26.58A64.69,64.69,0,0,1,32,24.5a64.69,64.69,0,0,1,17,2.08Z"/><path class="cls-3" d="M15,33.5s4.16,2,17,2,17-2,17-2v3.92A64.69,64.69,0,0,1,32,39.5a64.69,64.69,0,0,1-17-2.08Z"/><path class="cls-3" d="M20.29,21.44A29.11,29.11,0,0,0,15,23.66v17s4.16,3.75,17,3.75c.55,0,1.07,0,1.59,0C23.05,35.56,20.66,26.63,20.29,21.44Z"/><path class="cls-4" d="M25.3,35.29C17.67,34.78,15,33.5,15,33.5v3.92a61.5,61.5,0,0,0,13.46,2A38.24,38.24,0,0,1,25.3,35.29Z"/><path class="cls-4" d="M20.89,25.34A48,48,0,0,0,15,26.58V30.5s1.89-.9,7-1.49A28,28,0,0,1,20.89,25.34Z"/><path class="cls-1" d="M49,40.66s-4.16,3.75-17,3.75-17-3.75-17-3.75v-17a36.15,36.15,0,0,1,17-4.08,36.15,36.15,0,0,1,17,4.08Z"/><path class="cls-1" d="M21.42,29.07A23.56,23.56,0,0,0,15,30.5V26.58A64.69,64.69,0,0,1,32,24.5a64.69,64.69,0,0,1,17,2.08V30.5s-4.16-2-17-2c-2.24,0-4.21.06-5.94.16"/><path class="cls-1" d="M15,33.5s4.16,2,17,2,17-2,17-2v3.92A64.69,64.69,0,0,1,32,39.5a64.69,64.69,0,0,1-17-2.08Z"/><rect class="cls-5" height="64" width="64"/></g></svg>